<?xml version="1.0" standalone="no"?>
<!DOCTYPE svg PUBLIC "-//W3C//DTD SVG 20010904//EN"
 "http://www.w3.org/TR/2001/REC-SVG-20010904/DTD/svg10.dtd">
<svg version="1.0" xmlns="http://www.w3.org/2000/svg"
 width="3000.000000pt" height="2000.000000pt" viewBox="0 0 3000.000000 2000.000000"
 preserveAspectRatio="xMidYMid meet">
<metadata>
Created by potrace 1.16, written by Peter Selinger 2001-2019
</metadata>
<g transform="translate(0.000000,2000.000000) scale(0.100000,-0.100000)"
fill="#000000" stroke="none">
<path d="M21200 17887 l0 -737 928 1 927 1 185 -182 185 -181 3 185 2 186 206
0 207 0 -7 31 c-3 17 -7 311 -8 653 l-2 621 -7 -515 c-3 -283 -7 -572 -8 -642
l-1 -128 -205 0 -205 0 0 -155 c0 -85 -3 -155 -6 -155 -4 0 -79 72 -167 160
l-160 160 -912 0 -912 0 -5 693 c-3 380 -3 694 -1 697 2 2 476 7 1053 10 577
4 1053 9 1056 13 4 4 -274 7 -618 7 -343 0 -828 3 -1076 7 l-452 6 0 -736z"/>
<path d="M11380 18338 c-309 -44 -570 -271 -670 -583 -34 -106 -39 -310 -12
-426 47 -195 152 -356 312 -476 362 -271 891 -196 1158 165 112 152 163 304
164 492 1 243 -84 444 -256 607 -188 179 -437 258 -696 221z m346 -118 c211
-53 388 -198 484 -395 57 -118 74 -190 74 -325 0 -137 -23 -231 -86 -352 -96
-185 -303 -339 -507 -378 -79 -15 -246 -12 -321 6 -220 51 -429 231 -516 444
-53 132 -67 287 -38 428 57 277 271 501 544 572 104 26 261 27 366 0z"/>
<path d="M11539 18159 c-1 -19 -2 -47 -4 -64 -1 -16 -6 -124 -9 -240 -9 -257
-14 -325 -27 -341 -6 -8 -6 -20 2 -38 10 -20 19 -26 44 -26 23 0 34 5 37 18 3
10 91 73 199 141 221 141 205 129 195 138 -4 4 -94 -37 -201 -92 -106 -55
-195 -98 -198 -95 -2 3 -7 111 -11 240 -7 241 -15 382 -22 389 -2 2 -4 -11 -5
-30z"/>
<path d="M13715 18339 c-301 -42 -567 -264 -665 -556 -30 -87 -34 -113 -38
-233 -3 -112 -1 -150 17 -222 35 -149 103 -274 210 -388 l52 -55 -88 -7 c-174
-14 -316 -53 -419 -113 -162 -96 -263 -291 -296 -567 l-12 -98 -627 0 c-568 0
-627 -2 -633 -16 -10 -26 -7 -2626 3 -2622 5 2 84 95 177 208 331 404 765 912
789 922 6 3 179 1 385 -3 206 -4 478 -10 604 -12 l228 -4 -4 66 c-6 76 -24
117 -109 242 -32 47 -63 98 -69 113 -12 32 -14 136 -2 136 5 0 19 -12 33 -26
13 -14 53 -47 89 -72 36 -26 67 -49 70 -52 3 -3 38 -27 78 -54 153 -102 437
-393 817 -836 173 -201 327 -374 359 -404 37 -33 139 -15 468 85 l67 21 3 91
3 92 47 3 46 3 0 -50 c1 -28 -4 -53 -9 -57 -6 -4 -5 -11 2 -21 10 -12 10 -17
-2 -25 -10 -7 -4 -8 22 -4 28 5 57 28 140 109 58 57 131 123 161 146 188 141
715 254 803 171 23 -22 26 -22 44 -6 31 28 81 37 136 25 41 -9 55 -18 74 -47
13 -20 26 -55 29 -78 l4 -42 56 26 c117 53 202 34 202 -46 0 -35 -29 -97 -54
-115 -6 -5 -3 -6 9 -2 119 43 159 41 199 -6 54 -64 19 -181 -81 -267 -158
-137 -311 -223 -517 -292 -70 -23 -125 -44 -122 -47 8 -9 251 56 324 86 99 41
176 93 263 178 82 79 111 93 197 93 46 0 58 -4 82 -28 58 -59 47 -148 -31
-236 l-41 -46 47 0 c40 0 52 -5 81 -34 37 -37 43 -70 20 -114 -16 -30 -90
-102 -151 -149 -94 -70 -380 -224 -465 -249 -78 -23 -307 -62 -530 -89 -118
-15 -228 -33 -245 -40 -16 -7 -57 -21 -90 -30 -33 -9 -136 -41 -230 -70 -93
-29 -207 -63 -252 -75 -59 -17 -80 -26 -76 -36 3 -8 -1 -14 -8 -14 -9 0 -10
-3 -4 -8 15 -10 18 -61 5 -77 -8 -9 -8 -15 0 -20 17 -10 11 -38 -14 -69 l-24
-29 -26 29 c-22 25 -25 38 -26 102 0 39 -3 72 -7 72 -5 0 -62 -11 -128 -25
-259 -53 -467 -54 -574 -3 -60 28 -205 175 -304 307 -68 90 -78 99 -72 70 20
-114 43 -305 37 -310 -4 -4 -516 -9 -1139 -13 l-1132 -6 14 47 c8 27 15 50 15
53 0 3 -20 -29 -44 -70 -147 -254 -202 -346 -317 -530 l-128 -205 126 -3 c124
-3 125 -3 119 -25 -30 -123 -40 -236 -41 -479 l0 -258 -2763 0 -2762 0 2 -877
3 -878 205 -5 205 -5 3 -287 2 -288 -185 0 -185 0 0 -120 c0 -106 8 -160 65
-461 36 -187 65 -349 65 -360 0 -38 17 -18 60 73 25 51 69 136 97 189 55 102
106 253 142 421 17 80 22 144 26 370 7 361 22 509 64 603 50 114 291 288 475
344 82 25 153 26 295 5 58 -9 142 -17 186 -18 102 -1 151 21 290 134 168 136
238 187 294 216 50 24 61 26 135 21 89 -6 180 -33 406 -119 242 -93 271 -100
395 -99 98 0 196 14 332 47 24 6 15 -6 -57 -82 -106 -110 -150 -165 -253 -319
-119 -176 -150 -203 -382 -335 -258 -147 -525 -306 -623 -371 -42 -29 -160
-120 -262 -203 -351 -285 -364 -292 -564 -312 -232 -23 -371 -60 -541 -146
-160 -80 -221 -124 -264 -192 -43 -69 -131 -240 -131 -256 0 -5 35 8 78 29
191 95 540 173 699 156 41 -4 75 -15 98 -31 l35 -24 93 61 c132 87 188 113
307 143 191 47 548 87 910 101 224 9 340 23 455 55 115 33 129 35 120 20 -3
-5 -293 -201 -643 -434 -350 -233 -722 -488 -827 -566 -384 -289 -741 -587
-893 -744 -86 -89 -99 -108 -157 -229 -35 -73 -83 -180 -107 -239 -51 -123
-50 -58 -3 -503 47 -440 66 -599 80 -679 8 -43 15 -80 15 -82 0 -2 -45 -4
-100 -4 l-100 0 21 42 21 41 -22 261 c-29 353 -48 547 -53 552 -2 2 -20 -49
-40 -114 -38 -121 -36 -112 -72 -542 -8 -96 -17 -190 -21 -207 l-6 -33 -569 0
-569 0 0 -1370 0 -1370 415 0 415 0 0 1105 0 1105 170 0 170 0 0 -1105 0
-1105 415 0 415 0 0 1105 0 1105 170 0 170 0 0 -1570 0 -1570 -170 0 -170 0 0
400 0 400 -415 0 -415 0 0 -110 0 -109 98 -3 97 -3 3 -281 2 -281 -132 -6
c-73 -3 -379 -3 -679 1 -355 3 -548 2 -552 -5 -11 -18 14203 -33 15520 -16
l511 6 -15 36 c-18 42 -12 146 9 167 10 10 166 15 728 23 882 14 1100 14 1080
1 -10 -6 5 -10 50 -13 l65 -4 -75 0 c-99 0 -110 -5 -30 -13 l65 -7 -77 -1
c-44 -1 -78 -6 -78 -12 0 -5 -8 -10 -17 -10 -19 -1 -60 -27 -52 -33 2 -2 13
-9 24 -15 19 -11 19 -11 -5 -12 -14 0 -31 4 -38 9 -14 8 -62 -8 -62 -21 0 -3
-21 -17 -47 -29 -35 -17 -43 -25 -29 -27 10 -2 22 2 27 10 6 9 9 7 9 -9 0 -21
5 -22 83 -26 l82 -3 -87 -2 c-54 -1 -88 2 -88 8 0 6 -8 10 -17 10 -15 0 -16
-2 -3 -10 9 -6 10 -10 3 -10 -21 0 -43 12 -37 21 9 15 -9 10 -35 -10 -23 -17
-20 -18 120 -16 79 1 158 4 174 8 23 6 25 5 10 -2 -26 -12 2412 -13 2440 -1
11 5 -396 6 -955 3 -536 -3 -972 -3 -969 0 3 4 28 7 57 8 30 1 49 6 45 12 -3
5 -8 44 -12 86 l-6 76 -85 5 -85 6 85 5 85 5 -109 2 c-61 1 -106 6 -100 10 15
14 209 -1 207 -15 -4 -20 11 -15 26 8 11 19 11 21 -3 16 -9 -4 -16 -2 -16 3 0
13 23 13 36 1 5 -6 347 -4 859 4 1215 20 2287 35 2454 35 l144 0 -6 393 c-4
215 -10 431 -14 480 l-6 87 -506 0 c-278 0 -719 3 -978 7 -420 6 -473 5 -473
-9 0 -12 18 -16 83 -20 135 -9 290 -68 362 -139 17 -17 18 -19 2 -19 -9 0 -77
16 -149 35 -73 19 -190 44 -260 55 -121 20 -129 20 -165 4 l-38 -18 88 -7 c91
-8 205 -37 267 -69 55 -28 121 -80 115 -89 -3 -5 -33 -1 -68 10 -94 28 -320
76 -427 90 -89 11 -98 11 -134 -8 l-39 -20 114 -6 c87 -4 134 -12 198 -33 101
-33 227 -111 209 -129 -2 -2 -62 12 -133 31 -154 41 -261 61 -399 78 -77 9
-101 15 -101 26 0 8 10 16 23 18 23 4 23 4 17 105 -4 56 -10 105 -14 109 -9
10 -1914 -11 -1924 -21 -5 -5 24 -12 68 -16 99 -9 205 -38 275 -76 67 -36 117
-75 108 -84 -4 -4 -67 9 -140 29 -140 37 -341 76 -392 76 -17 -1 -42 -7 -55
-14 -22 -12 -19 -14 45 -20 108 -11 192 -34 269 -71 76 -38 133 -80 122 -91
-3 -4 -57 7 -119 24 -127 35 -228 56 -368 76 -92 14 -97 14 -143 -7 l-49 -22
99 -1 c116 -2 212 -24 308 -70 70 -34 132 -80 122 -90 -3 -4 -78 12 -166 35
-88 22 -226 50 -307 62 l-146 21 -137 -63 c-75 -35 -255 -123 -401 -196 -259
-129 -265 -132 -282 -112 -16 18 -32 19 -382 19 l-366 0 0 -215 0 -215 -178 0
c-161 0 -178 -2 -189 -18 -16 -27 -75 -52 -119 -52 -37 0 -124 42 -124 60 0 5
-67 11 -152 12 l-153 3 -3 2773 -2 2772 1288 0 1289 0 7 -248 c13 -492 53
-1184 126 -2207 29 -402 98 -1285 123 -1580 l12 -140 41 -3 42 -3 7 -85 7 -84
952 0 952 0 -4 73 c-3 39 -8 81 -12 92 -7 19 -1 21 99 30 l107 10 -38 340
c-265 2400 -433 3977 -454 4260 l-6 90 201 795 c253 1001 309 1221 314 1226 2
3 7 -78 11 -178 51 -1359 58 -1605 66 -2478 9 -970 20 -1724 45 -3130 8 -454
15 -846 15 -872 l0 -48 70 0 70 0 0 -105 0 -105 968 2 967 3 -4 113 -3 112 67
0 67 0 -6 58 c-13 121 -234 3079 -280 3752 -29 421 -42 626 -56 940 -19 420
-220 3183 -232 3195 -6 6 -2406 85 -2580 85 -59 0 -68 2 -68 18 0 67 178 897
291 1352 72 294 133 537 134 538 2 2 72 -3 157 -12 84 -9 230 -23 323 -32 94
-9 202 -24 240 -34 39 -10 72 -16 74 -14 3 2 15 64 27 137 13 72 46 265 74
427 106 615 120 699 120 717 0 14 -49 43 -204 119 l-204 100 29 47 c16 26 29
52 29 58 0 6 -36 76 -80 155 -44 78 -80 148 -80 153 0 6 73 72 163 147 89 75
164 141 165 146 5 12 -100 731 -108 741 -4 4 -41 -97 -83 -225 -87 -266 -294
-916 -327 -1027 -12 -42 -25 -69 -29 -63 -12 19 -251 94 -319 99 -34 3 -96 0
-137 -7 -42 -7 -78 -10 -82 -6 -6 5 64 312 230 1011 l31 130 13 -95 c18 -130
57 -210 116 -239 24 -12 57 -21 75 -21 86 0 256 100 349 206 66 75 123 168
123 202 0 13 -20 97 -44 185 -24 89 -54 207 -66 262 -12 55 -26 115 -30 133
-5 17 -5 32 0 32 35 0 158 165 146 196 -3 8 -2 13 3 10 12 -8 36 81 36 137 0
41 -4 53 -28 73 -15 13 -35 24 -43 24 -11 0 -13 7 -7 28 15 55 8 304 -10 372
-59 218 -187 352 -388 406 -80 21 -262 24 -339 5 -198 -48 -348 -229 -374
-448 -3 -28 -10 -63 -16 -77 -5 -15 -21 -81 -34 -149 -65 -328 -59 -612 17
-767 29 -58 129 -158 194 -192 63 -33 156 -58 217 -58 25 0 46 -1 46 -3 0 -1
11 -46 25 -100 l25 -98 -176 -350 -175 -350 32 -59 c19 -36 28 -64 23 -72 -4
-7 -42 -65 -83 -128 -73 -112 -75 -117 -79 -187 -4 -68 -5 -72 -31 -78 -105
-24 -240 -69 -234 -78 3 -6 1 -7 -5 -3 -16 10 -167 -62 -231 -110 -31 -23 -60
-55 -72 -81 -19 -39 -19 -44 -5 -75 29 -60 63 -72 219 -76 90 -2 137 1 137 8
0 5 5 10 10 10 16 0 7 -19 -24 -53 -36 -39 -65 -103 -66 -141 0 -44 36 -98 96
-141 30 -22 53 -42 52 -45 -2 -3 -18 -35 -36 -71 -42 -83 -45 -137 -13 -199
12 -25 34 -54 47 -65 l24 -20 -60 -305 c-33 -168 -59 -308 -57 -312 1 -4 33
124 70 285 38 160 71 295 74 300 13 21 29 -25 29 -83 1 -71 27 -146 67 -185
58 -58 174 -100 311 -112 42 -3 76 -9 76 -12 1 -3 -34 -188 -77 -410 l-78
-403 -255 7 c-140 4 -257 9 -260 12 -3 2 -7 36 -10 74 l-5 70 -109 -383 c-60
-211 -111 -387 -114 -392 -3 -5 -19 7 -36 26 -414 477 -828 938 -843 938 -11
0 68 -107 181 -245 175 -213 343 -402 515 -577 l174 -178 -49 -175 c-27 -96
-51 -175 -54 -175 -11 0 -231 246 -506 566 -28 32 -69 79 -90 104 -22 25 -50
58 -64 74 -14 17 -43 50 -65 75 -23 26 -80 92 -129 149 -49 56 -92 105 -97
107 -4 3 -25 -13 -46 -37 -45 -49 -36 -40 -183 -193 -149 -155 -272 -303 -264
-317 4 -6 3 -8 -3 -5 -12 8 -36 -17 -26 -26 3 -4 1 -7 -5 -7 -12 0 -83 -101
-151 -217 l-43 -73 -513 0 c-479 0 -513 1 -520 18 -4 9 -44 116 -90 237 -46
121 -102 267 -124 324 -23 58 -41 106 -41 108 0 2 144 3 320 3 176 0 320 3
320 7 0 3 79 373 174 822 353 1649 386 1804 386 1817 0 12 -217 14 -1340 14
l-1340 0 0 850 0 850 -2340 0 c-1287 0 -2340 -1 -2340 -2 0 -2 7 -39 16 -83 8
-44 16 -127 15 -185 0 -202 -48 -336 -161 -451 -162 -164 -441 -222 -664 -138
l-53 19 -6 68 c-6 68 -32 152 -62 198 l-16 25 -30 -26 c-35 -29 -90 -33 -142
-12 -45 19 -140 125 -173 193 -37 76 -44 154 -15 183 39 39 106 24 215 -47
l69 -45 45 23 c58 31 117 111 147 197 13 37 31 123 40 190 29 224 93 344 217
409 48 26 189 31 261 10 30 -9 58 -16 61 -16 3 0 6 18 6 40 0 38 2 40 29 40
46 0 162 27 236 55 245 92 440 312 505 569 25 101 27 285 4 388 -37 160 -117
301 -238 416 -187 177 -436 257 -691 221z m340 -119 c214 -55 389 -198 485
-395 57 -117 73 -190 74 -325 0 -172 -39 -294 -139 -436 -53 -74 -143 -158
-218 -203 -87 -51 -218 -93 -314 -99 -75 -4 -83 -3 -89 14 -46 145 -131 218
-254 219 -55 0 -77 -6 -135 -34 l-69 -34 -71 75 c-120 127 -182 275 -192 459
-13 223 69 424 236 581 90 85 202 147 321 178 104 26 261 27 365 0z m1248
-2622 c68 -18 109 -97 93 -180 -4 -20 -26 -54 -56 -85 -43 -47 -48 -56 -43
-87 3 -20 1 -36 -6 -41 -9 -5 -9 -10 0 -22 10 -12 10 -16 -2 -24 -8 -5 -9 -9
-4 -9 14 0 17 -61 4 -76 -7 -8 -7 -14 1 -19 16 -10 11 -38 -14 -68 l-23 -29
-26 32 c-26 31 -27 35 -27 171 0 86 -4 139 -10 139 -5 0 -10 5 -10 11 0 6 -13
22 -30 35 -60 51 -64 146 -8 209 43 50 90 62 161 43z m2601 0 c38 -10 49 -19
70 -59 28 -51 33 -110 13 -146 -7 -12 -30 -40 -51 -63 -32 -35 -39 -49 -38
-81 1 -21 -3 -41 -9 -44 -7 -5 -6 -12 2 -22 10 -12 10 -16 -2 -24 -8 -5 -9 -9
-4 -9 14 0 17 -61 4 -76 -7 -8 -7 -14 1 -19 17 -10 12 -35 -14 -65 l-24 -29
-26 28 c-26 27 -26 29 -26 169 0 88 -4 142 -10 142 -5 0 -10 5 -10 11 0 6 -13
22 -30 35 -60 51 -64 146 -8 209 43 50 90 62 162 43z m-696 -3818 c-3 -16 -2
-30 1 -31 36 -5 242 -7 1034 -8 607 -1 927 -4 927 -11 0 -5 41 -116 90 -247
50 -130 90 -242 90 -249 0 -9 -61 -13 -237 -18 -131 -4 -284 -9 -340 -12 -99
-5 -103 -5 -103 15 0 16 -6 21 -26 21 -21 0 -24 4 -19 20 6 19 2 20 -79 20
-85 0 -86 0 -86 -25 0 -20 -5 -25 -25 -25 -18 0 -25 5 -25 20 0 18 -7 20 -85
20 -82 0 -85 -1 -82 -22 3 -32 -42 -39 -50 -9 -5 19 -13 21 -84 21 -72 0 -79
-2 -79 -20 0 -15 -7 -20 -25 -20 -15 0 -25 6 -25 14 0 15 -43 26 -104 26 -47
0 -68 -11 -64 -31 2 -9 -7 -15 -24 -17 -23 -3 -28 1 -28 17 0 19 -6 21 -80 21
-73 0 -80 -2 -80 -20 0 -15 -7 -20 -25 -20 -16 0 -25 6 -25 15 0 12 -16 15
-85 15 -78 0 -85 -2 -85 -20 0 -15 -7 -20 -25 -20 -16 0 -25 6 -25 15 0 12
-15 15 -79 15 -71 0 -79 -2 -84 -21 -7 -26 -53 -23 -51 4 2 15 -8 17 -82 17
-77 0 -84 -2 -84 -20 0 -15 -7 -20 -25 -20 -16 0 -25 6 -25 15 0 12 -16 15
-80 15 -64 0 -80 -3 -80 -15 0 -21 -3 -20 -72 31 -73 55 -182 107 -264 129
-68 18 -192 20 -249 4 -166 -46 -372 -222 -352 -300 5 -19 -10 -19 -619 -19
l-624 0 -4 23 c-3 12 -17 101 -31 197 -33 219 -49 298 -86 426 -16 56 -29 105
-29 108 0 3 631 6 1401 6 l1401 0 -4 -30z m4092 -3457 l0 -1268 -73 -26 c-39
-14 -80 -29 -89 -33 -17 -8 -18 58 -18 1293 l0 1301 90 0 90 0 0 -1267z m5397
-6334 c40 -15 92 -67 114 -114 47 -101 6 -209 -96 -256 -73 -34 -144 -22 -204
34 -71 68 -91 167 -48 248 41 76 153 119 234 88z m-5664 -460 c88 -24 139
-107 116 -191 -30 -114 -165 -155 -254 -77 -89 78 -61 225 50 264 49 17 42 17
88 4z"/>
<path d="M13824 17517 c-17 -20 -129 -95 -264 -177 -258 -157 -279 -171 -280
-183 0 -4 28 8 63 26 225 122 522 268 535 264 10 -2 99 -61 198 -131 100 -69
185 -126 188 -126 21 0 -11 32 -146 146 -84 70 -169 144 -189 165 -53 54 -71
56 -105 16z"/>
<path d="M16045 18339 c-171 -24 -335 -107 -461 -233 -122 -122 -192 -247
-228 -404 -23 -101 -21 -275 4 -379 89 -371 420 -633 800 -633 374 0 689 232
802 590 20 66 23 95 23 240 0 160 -1 168 -32 256 -47 135 -104 225 -208 329
-189 189 -435 271 -700 234z m338 -119 c305 -77 519 -324 558 -642 42 -339
-175 -676 -506 -785 -116 -38 -298 -44 -414 -14 -251 65 -446 248 -528 496
-24 71 -27 96 -27 220 -1 128 1 147 28 228 81 247 278 433 526 497 103 26 261
27 363 0z"/>
<path d="M16411 17750 c-142 -147 -219 -220 -233 -220 -12 0 -122 16 -245 36
-201 32 -248 36 -231 19 2 -3 110 -32 238 -65 128 -32 238 -64 244 -70 5 -5
13 -10 17 -10 4 0 33 32 65 72 33 39 130 155 216 257 87 102 158 189 158 194
0 20 -32 -10 -229 -213z"/>
<path d="M18375 18340 c-337 -51 -613 -307 -690 -640 -25 -107 -23 -281 5
-385 61 -234 221 -434 435 -542 136 -69 342 -99 502 -73 330 53 597 301 674
625 28 120 23 323 -11 430 -90 282 -310 495 -585 565 -92 24 -245 33 -330 20z
m338 -120 c509 -130 728 -727 422 -1155 -89 -125 -223 -224 -370 -272 -97 -31
-279 -43 -378 -23 -213 41 -419 197 -517 390 -59 116 -75 192 -75 345 1 127 3
148 29 220 44 129 90 201 190 301 103 102 201 159 336 194 103 26 261 27 363
0z"/>
<path d="M18470 17977 c0 -13 7 -123 15 -244 8 -121 14 -231 13 -244 -1 -17
47 -91 157 -243 87 -121 159 -227 160 -236 1 -21 55 -113 62 -107 2 3 -1 16
-8 29 l-12 23 23 -20 23 -20 -7 20 c-4 11 -79 137 -166 281 l-159 260 -40 252
c-23 138 -41 256 -41 261 0 6 -4 11 -10 11 -5 0 -10 -10 -10 -23z"/>
<path d="M21871 17975 c-43 -37 -56 -83 -36 -132 44 -109 198 -92 220 25 19
99 -106 172 -184 107z"/>
<path d="M22447 17970 c-41 -35 -52 -78 -33 -124 36 -86 139 -103 198 -32 88
105 -62 247 -165 156z"/>
<path d="M23038 17983 c-36 -23 -53 -57 -52 -106 1 -33 8 -47 38 -74 59 -55
146 -40 180 31 20 42 20 59 1 100 -29 61 -110 84 -167 49z"/>
<path d="M13821 16222 c4 -21 31 -116 59 -212 27 -96 50 -180 50 -187 0 -8
-12 -10 -37 -6 l-36 6 6 -39 c4 -21 9 -51 13 -66 6 -25 3 -28 -17 -28 -22 0
-64 9 -116 25 -20 6 -23 4 -23 -18 0 -19 6 -26 30 -31 17 -3 42 -18 55 -32
l25 -27 27 32 c15 17 34 31 41 31 11 0 13 11 7 55 l-7 56 26 -7 c54 -13 56 -4
30 102 -14 53 -23 99 -19 102 3 3 5 0 5 -6 0 -16 37 -52 53 -52 8 0 7 4 -3 10
-10 6 -11 10 -2 10 22 0 52 40 52 70 0 19 7 33 20 40 14 7 20 21 20 42 l0 32
-20 -22 c-19 -20 -22 -20 -54 -7 -31 13 -36 13 -56 -3 -17 -14 -22 -29 -22
-63 0 -41 -2 -37 -34 56 -38 115 -64 175 -74 175 -5 0 -4 -17 1 -38z"/>
<path d="M13580 16004 c-23 -27 -48 -36 -70 -24 -16 8 -20 8 -20 -4 0 -21 28
-46 51 -46 11 0 23 -10 28 -23 13 -33 37 -50 66 -45 18 4 23 2 18 -6 -5 -7 0
-3 11 8 22 25 18 91 -8 131 -19 29 -57 33 -76 9z"/>
<path d="M25300 14598 c0 -4 11 -32 25 -63 70 -154 76 -171 55 -143 -11 14
-30 37 -41 50 l-20 23 15 -30 c7 -16 33 -51 55 -77 23 -26 69 -100 103 -165
68 -130 124 -233 153 -276 l18 -29 -39 17 c-82 35 -141 58 -206 80 -65 23 -66
23 -71 3 -4 -14 -2 -18 9 -14 23 9 554 -230 840 -378 70 -36 130 -64 132 -61
11 11 -175 118 -388 223 -129 64 -236 119 -238 122 -4 9 -112 202 -182 325
-35 61 -98 175 -141 255 -44 80 -79 142 -79 138z"/>
<path d="M16412 14146 c-31 -85 -144 -167 -342 -247 -58 -23 -106 -44 -108
-45 -2 -1 4 -39 14 -84 12 -60 15 -117 12 -211 -4 -128 -4 -129 -46 -210 l-42
-82 31 29 c39 37 75 107 96 187 15 60 14 203 -3 293 -6 30 -4 32 28 39 18 4
101 27 183 51 154 44 255 89 248 111 -3 7 -20 28 -39 47 -36 36 -40 55 -23
104 6 17 9 36 7 42 -2 6 -9 -5 -16 -24z"/>
<path d="M12455 13737 c-165 -348 -297 -638 -292 -643 8 -8 177 317 273 526
21 47 60 117 86 155 43 64 94 165 83 165 -2 0 -20 -24 -40 -52 -19 -29 -35
-50 -35 -48 0 3 14 41 30 84 17 43 29 80 28 82 -2 1 -62 -120 -133 -269z"/>
<path d="M16815 13884 c-124 -116 -283 -197 -460 -234 -33 -7 -64 -17 -69 -22
-14 -12 -4 -11 122 12 202 37 301 87 422 217 65 70 81 94 63 93 -5 -1 -39 -30
-78 -66z"/>
<path d="M25661 13779 c0 -4 -23 -119 -51 -255 -97 -486 -183 -1066 -151
-1013 16 25 56 234 110 574 70 439 103 665 98 684 -3 9 -5 13 -6 10z"/>
<path d="M13478 13369 c-137 -24 -240 -50 -408 -104 -74 -24 -144 -46 -155
-49 -11 -3 9 -4 45 -2 39 3 143 26 260 60 107 30 242 66 299 80 165 40 145 48
-41 15z"/>
<path d="M17062 13326 c-163 -109 -277 -159 -461 -201 -57 -13 -106 -27 -110
-31 -10 -11 132 6 218 26 111 27 192 62 286 126 85 57 172 130 165 138 -3 2
-47 -24 -98 -58z"/>
<path d="M25088 12491 c-18 -77 -19 -75 105 -100 168 -32 484 -77 732 -102
371 -38 975 -30 1002 14 4 7 -2 8 -18 3 -47 -14 -454 -14 -644 0 -307 22 -929
97 -1112 135 -50 10 -52 11 -55 47 l-3 37 -7 -34z"/>
<path d="M24545 11825 c-4 -36 -6 -67 -4 -69 2 -2 182 -26 399 -55 217 -28
407 -54 421 -57 25 -5 26 -3 36 65 l9 70 -25 5 c-45 10 -782 106 -806 106 -21
0 -24 -5 -30 -65z"/>
<path d="M9465 11779 c-157 -35 -322 -94 -432 -155 -85 -48 -88 -59 -6 -27 37
14 178 63 313 109 181 61 235 83 205 82 -22 0 -58 -4 -80 -9z"/>
<path d="M9600 11609 c-196 -32 -409 -99 -589 -185 -62 -30 -111 -57 -109 -59
2 -2 65 18 140 45 76 27 235 79 355 115 304 90 312 93 283 93 -14 0 -50 -4
-80 -9z"/>
<path d="M9735 11410 c-140 -30 -328 -84 -465 -133 -141 -51 -271 -106 -253
-107 25 0 838 244 852 256 10 9 -50 1 -134 -16z"/>
<path d="M10275 11324 c-151 -26 -287 -86 -315 -139 -15 -28 -21 -67 -9 -60 5
4 9 12 9 20 0 21 55 62 113 83 29 11 102 32 162 46 61 14 146 34 190 45 l80
19 -75 0 c-41 0 -111 -6 -155 -14z"/>
<path d="M6101 7823 c-1 -176 2 -263 9 -263 18 0 90 40 90 49 0 12 -90 453
-94 466 -3 6 -5 -108 -5 -252z"/>
<path d="M6555 6803 c-50 -30 -96 -60 -102 -67 -13 -12 -11 -47 32 -434 8 -74
15 -141 16 -150 0 -10 14 12 31 48 69 149 75 174 98 418 12 128 20 235 18 237
-2 2 -44 -21 -93 -52z"/>
<path d="M6211 6573 l-111 -78 0 -650 0 -650 27 -88 c15 -52 29 -83 34 -75 3
7 12 51 18 98 21 151 61 373 82 449 11 40 48 137 83 215 l64 141 -34 345 c-18
190 -34 351 -34 358 0 21 -14 14 -129 -65z"/>
<path d="M20032 4753 c-114 -433 -115 -930 -3 -1366 17 -65 31 -120 31 -123 0
-2 52 -4 115 -4 l115 0 0 190 0 190 -85 0 -85 0 0 425 0 425 85 0 85 0 0 190
0 190 -114 0 -113 0 -31 -117z"/>
</g>
</svg>
